<svg id="visual" viewBox="0 0 1400 750" width="1400" height="750" xmlns="http://www.w3.org/2000/svg" xmlns:xlink="http://www.w3.org/1999/xlink" version="1.1"><rect x="0" y="0" width="1400" height="750" fill="#fff"></rect><path d="M0 491L33.3 501C66.7 511 133.3 531 200 536.2C266.7 541.3 333.3 531.7 400 526.8C466.7 522 533.3 522 600 514.2C666.7 506.3 733.3 490.7 800 491.3C866.7 492 933.3 509 1000 518.7C1066.7 528.3 1133.3 530.7 1200 530.8C1266.7 531 1333.3 529 1366.7 528L1400 527L1400 751L1366.7 751C1333.3 751 1266.7 751 1200 751C1133.3 751 1066.7 751 1000 751C933.3 751 866.7 751 800 751C733.3 751 666.7 751 600 751C533.3 751 466.7 751 400 751C333.3 751 266.7 751 200 751C133.3 751 66.7 751 33.3 751L0 751Z" fill="#ffcd81"></path><path d="M0 600L33.3 598.5C66.7 597 133.3 594 200 589.2C266.7 584.3 333.3 577.7 400 568.3C466.7 559 533.3 547 600 542.3C666.7 537.7 733.3 540.3 800 549.7C866.7 559 933.3 575 1000 574.3C1066.7 573.7 1133.3 556.3 1200 546C1266.7 535.7 1333.3 532.3 1366.7 530.7L1400 529L1400 751L1366.7 751C1333.3 751 1266.7 751 1200 751C1133.3 751 1066.7 751 1000 751C933.3 751 866.7 751 800 751C733.3 751 666.7 751 600 751C533.3 751 466.7 751 400 751C333.3 751 266.7 751 200 751C133.3 751 66.7 751 33.3 751L0 751Z" fill="#ffa98d"></path><path d="M0 610L33.3 609.2C66.7 608.3 133.3 606.7 200 603.5C266.7 600.3 333.3 595.7 400 599.3C466.7 603 533.3 615 600 611.5C666.7 608 733.3 589 800 591C866.7 593 933.3 616 1000 615.2C1066.7 614.3 1133.3 589.7 1200 586.2C1266.7 582.7 1333.3 600.3 1366.7 609.2L1400 618L1400 751L1366.7 751C1333.3 751 1266.7 751 1200 751C1133.3 751 1066.7 751 1000 751C933.3 751 866.7 751 800 751C733.3 751 666.7 751 600 751C533.3 751 466.7 751 400 751C333.3 751 266.7 751 200 751C133.3 751 66.7 751 33.3 751L0 751Z" fill="#e790a1"></path><path d="M0 670L33.3 665.7C66.7 661.3 133.3 652.7 200 645.2C266.7 637.7 333.3 631.3 400 636.7C466.7 642 533.3 659 600 666C666.7 673 733.3 670 800 662.3C866.7 654.7 933.3 642.3 1000 641.5C1066.7 640.7 1133.3 651.3 1200 651C1266.7 650.7 1333.3 639.3 1366.7 633.7L1400 628L1400 751L1366.7 751C1333.3 751 1266.7 751 1200 751C1133.3 751 1066.7 751 1000 751C933.3 751 866.7 751 800 751C733.3 751 666.7 751 600 751C533.3 751 466.7 751 400 751C333.3 751 266.7 751 200 751C133.3 751 66.7 751 33.3 751L0 751Z" fill="#b883ad"></path><path d="M0 669L33.3 670C66.7 671 133.3 673 200 671.5C266.7 670 333.3 665 400 666.5C466.7 668 533.3 676 600 675.8C666.7 675.7 733.3 667.3 800 672.7C866.7 678 933.3 697 1000 698.3C1066.7 699.7 1133.3 683.3 1200 676.2C1266.7 669 1333.3 671 1366.7 672L1400 673L1400 751L1366.7 751C1333.3 751 1266.7 751 1200 751C1133.3 751 1066.7 751 1000 751C933.3 751 866.7 751 800 751C733.3 751 666.7 751 600 751C533.3 751 466.7 751 400 751C333.3 751 266.7 751 200 751C133.3 751 66.7 751 33.3 751L0 751Z" fill="#7f7aa6"></path></svg>