<svg id="visual" viewBox="0 0 900 600" width="900" height="600" xmlns="http://www.w3.org/2000/svg" xmlns:xlink="http://www.w3.org/1999/xlink" version="1.1"><rect x="0" y="0" width="900" height="600" fill="#fff"></rect><path d="M0 392L21.5 400.2C43 408.3 86 424.7 128.8 428.8C171.7 433 214.3 425 257.2 421.2C300 417.3 343 417.7 385.8 411.5C428.7 405.3 471.3 392.7 514.2 393.2C557 393.7 600 407.3 642.8 415C685.7 422.7 728.3 424.3 771.2 424.3C814 424.3 857 422.7 878.5 421.8L900 421L900 601L878.5 601C857 601 814 601 771.2 601C728.3 601 685.7 601 642.8 601C600 601 557 601 514.2 601C471.3 601 428.7 601 385.8 601C343 601 300 601 257.2 601C214.3 601 171.7 601 128.8 601C86 601 43 601 21.5 601L0 601Z" fill="#ffcd81"></path><path d="M0 480L21.5 478.7C43 477.3 86 474.7 128.8 470.8C171.7 467 214.3 462 257.2 454.7C300 447.3 343 437.7 385.8 434C428.7 430.3 471.3 432.7 514.2 440.2C557 447.7 600 460.3 642.8 459.7C685.7 459 728.3 445 771.2 436.7C814 428.3 857 425.7 878.5 424.3L900 423L900 601L878.5 601C857 601 814 601 771.2 601C728.3 601 685.7 601 642.8 601C600 601 557 601 514.2 601C471.3 601 428.7 601 385.8 601C343 601 300 601 257.2 601C214.3 601 171.7 601 128.8 601C86 601 43 601 21.5 601L0 601Z" fill="#ffa98d"></path><path d="M0 488L21.5 487.2C43 486.3 86 484.7 128.8 482.2C171.7 479.7 214.3 476.3 257.2 479.3C300 482.3 343 491.7 385.8 488.8C428.7 486 471.3 471 514.2 472.7C557 474.3 600 492.7 642.8 492C685.7 491.3 728.3 471.7 771.2 468.8C814 466 857 480 878.5 487L900 494L900 601L878.5 601C857 601 814 601 771.2 601C728.3 601 685.7 601 642.8 601C600 601 557 601 514.2 601C471.3 601 428.7 601 385.8 601C343 601 300 601 257.2 601C214.3 601 171.7 601 128.8 601C86 601 43 601 21.5 601L0 601Z" fill="#e790a1"></path><path d="M0 536L21.5 532.5C43 529 86 522 128.8 516C171.7 510 214.3 505 257.2 509.3C300 513.7 343 527.3 385.8 533C428.7 538.7 471.3 536.3 514.2 530.2C557 524 600 514 642.8 513.3C685.7 512.7 728.3 521.3 771.2 521C814 520.7 857 511.3 878.5 506.7L900 502L900 601L878.5 601C857 601 814 601 771.2 601C728.3 601 685.7 601 642.8 601C600 601 557 601 514.2 601C471.3 601 428.7 601 385.8 601C343 601 300 601 257.2 601C214.3 601 171.7 601 128.8 601C86 601 43 601 21.5 601L0 601Z" fill="#b883ad"></path><path d="M0 535L21.5 535.8C43 536.7 86 538.3 128.8 537.2C171.7 536 214.3 532 257.2 533.2C300 534.3 343 540.7 385.8 540.5C428.7 540.3 471.3 533.7 514.2 537.8C557 542 600 557 642.8 558.2C685.7 559.3 728.3 546.7 771.2 541.2C814 535.7 857 537.3 878.5 538.2L900 539L900 601L878.5 601C857 601 814 601 771.2 601C728.3 601 685.7 601 642.8 601C600 601 557 601 514.2 601C471.3 601 428.7 601 385.8 601C343 601 300 601 257.2 601C214.3 601 171.7 601 128.8 601C86 601 43 601 21.5 601L0 601Z" fill="#7f7aa6"></path></svg>